<svg
    xmlns="http://www.w3.org/2000/svg"
    viewBox="0 0 24 19"
    id="vector">
    <path
        id="path"
        d="M 10.998 7.4 C 10.584 7.4 10.248 7.736 10.248 8.15 C 10.248 8.564 10.584 8.9 10.998 8.9 L 12.999 8.9 C 13.413 8.9 13.749 8.564 13.749 8.15 C 13.749 7.736 13.413 7.4 12.999 7.4 L 10.998 7.4 Z"
        fill="#3a83f1"/>
    <path
        id="path_1"
        d="M 0.75 3 C 0.336 3 0 2.664 0 2.25 L 0 0.75 C 0 0.336 0.336 0 0.75 0 L 23.25 0 C 23.664 0 24 0.336 24 0.75 L 24 2.25 C 24 2.664 23.664 3 23.25 3 L 21 3 L 21 16 C 21 17.381 19.88 18.5 18.5 18.5 L 5.5 18.5 C 4.119 18.5 3 17.381 3 16 L 3 3 L 0.75 3 Z M 10.75 4.4 C 9.999 4.4 9.345 3.986 9.003 3.375 C 8.904 3.198 9.047 3 9.25 3 L 14.75 3 C 14.952 3 15.096 3.198 14.997 3.375 C 14.655 3.986 14.001 4.4 13.25 4.4 L 10.75 4.4 Z M 8.748 8.15 C 8.748 6.908 9.755 5.9 10.998 5.9 L 12.999 5.9 C 14.241 5.9 15.249 6.907 15.249 8.149 C 15.249 9.392 14.242 10.4 12.999 10.4 L 10.998 10.4 C 9.756 10.4 8.748 9.393 8.748 8.15 Z M 9.5 11.9 C 9.24 11.9 8.998 12.035 8.862 12.256 C 8.725 12.477 8.713 12.753 8.829 12.985 L 9.329 13.985 C 9.514 14.356 9.965 14.506 10.335 14.321 C 10.602 14.187 10.755 13.916 10.75 13.636 C 10.748 13.518 10.83 13.4 10.948 13.4 L 14.5 13.4 C 14.914 13.4 15.25 13.064 15.25 12.65 C 15.25 12.236 14.914 11.9 14.5 11.9 L 9.5 11.9 Z"
        fill="#3a83f1"
        fill-rule="evenodd"/>
</svg>
